<mxfile host="app.diagrams.net" modified="2023-01-14T07:18:05.196Z" agent="5.0 (X11; Linux x86_64) AppleWebKit/537.36 (KHTML, like Gecko) Chrome/108.0.0.0 Safari/537.36" etag="MaCXdsDcfQj3xdsji-B7" version="20.8.5" type="github">
  <diagram id="Hkj4WFlvK4-08UBy-HWi" name="Page-1">
    <mxGraphModel dx="1218" dy="785" grid="1" gridSize="10" guides="1" tooltips="1" connect="1" arrows="1" fold="1" page="1" pageScale="1" pageWidth="850" pageHeight="1100" math="0" shadow="0">
      <root>
        <mxCell id="0" />
        <mxCell id="1" parent="0" />
        <mxCell id="1bVyddex_vhO6T4n7lc5-1" value="Floor: 4" style="text;strokeColor=none;fillColor=none;html=1;fontSize=24;fontStyle=1;verticalAlign=middle;align=center;" parent="1" vertex="1">
          <mxGeometry x="40" y="40" width="100" height="40" as="geometry" />
        </mxCell>
        <mxCell id="1bVyddex_vhO6T4n7lc5-2" value="Room: 13" style="text;strokeColor=none;fillColor=none;html=1;fontSize=24;fontStyle=1;verticalAlign=middle;align=center;" parent="1" vertex="1">
          <mxGeometry x="160" y="40" width="100" height="40" as="geometry" />
        </mxCell>
        <mxCell id="1bVyddex_vhO6T4n7lc5-6" value="" style="verticalLabelPosition=bottom;html=1;verticalAlign=top;align=center;shape=mxgraph.floorplan.plant;" parent="1" vertex="1">
          <mxGeometry x="140" y="210" width="47" height="51" as="geometry" />
        </mxCell>
        <mxCell id="1bVyddex_vhO6T4n7lc5-7" value="" style="verticalLabelPosition=bottom;html=1;verticalAlign=top;align=center;shape=mxgraph.floorplan.wall;fillColor=strokeColor;" parent="1" vertex="1">
          <mxGeometry x="470" y="470" width="40" height="10" as="geometry" />
        </mxCell>
        <mxCell id="1bVyddex_vhO6T4n7lc5-8" value="" style="verticalLabelPosition=bottom;html=1;verticalAlign=top;align=center;shape=mxgraph.floorplan.plant;" parent="1" vertex="1">
          <mxGeometry x="140" y="312" width="47" height="51" as="geometry" />
        </mxCell>
        <mxCell id="1bVyddex_vhO6T4n7lc5-9" value="" style="verticalLabelPosition=bottom;html=1;verticalAlign=top;align=center;shape=mxgraph.floorplan.plant;" parent="1" vertex="1">
          <mxGeometry x="140" y="261" width="47" height="51" as="geometry" />
        </mxCell>
        <mxCell id="1bVyddex_vhO6T4n7lc5-10" value="" style="verticalLabelPosition=bottom;html=1;verticalAlign=top;align=center;shape=mxgraph.floorplan.plant;" parent="1" vertex="1">
          <mxGeometry x="140" y="363" width="47" height="51" as="geometry" />
        </mxCell>
        <mxCell id="1bVyddex_vhO6T4n7lc5-11" value="" style="verticalLabelPosition=bottom;html=1;verticalAlign=top;align=center;shape=mxgraph.floorplan.wall;fillColor=strokeColor;" parent="1" vertex="1">
          <mxGeometry x="200" y="470" width="120" height="10" as="geometry" />
        </mxCell>
        <mxCell id="1bVyddex_vhO6T4n7lc5-12" value="" style="verticalLabelPosition=bottom;html=1;verticalAlign=top;align=center;shape=mxgraph.floorplan.plant;" parent="1" vertex="1">
          <mxGeometry x="140" y="414" width="47" height="51" as="geometry" />
        </mxCell>
        <mxCell id="1bVyddex_vhO6T4n7lc5-17" value="Sea view" style="text;strokeColor=none;fillColor=none;html=1;fontSize=24;fontStyle=0;verticalAlign=middle;align=center;" parent="1" vertex="1">
          <mxGeometry x="350" y="70" width="100" height="40" as="geometry" />
        </mxCell>
        <mxCell id="1bVyddex_vhO6T4n7lc5-18" value="" style="endArrow=classic;html=1;rounded=0;dashed=1;dashPattern=8 8;" parent="1" edge="1">
          <mxGeometry width="50" height="50" relative="1" as="geometry">
            <mxPoint x="400" y="130" as="sourcePoint" />
            <mxPoint x="400" y="240" as="targetPoint" />
          </mxGeometry>
        </mxCell>
        <mxCell id="1bVyddex_vhO6T4n7lc5-19" value="entrance" style="edgeLabel;html=1;align=center;verticalAlign=middle;resizable=0;points=[];fontSize=14;" parent="1bVyddex_vhO6T4n7lc5-18" vertex="1" connectable="0">
          <mxGeometry x="-0.5444" y="-3" relative="1" as="geometry">
            <mxPoint as="offset" />
          </mxGeometry>
        </mxCell>
        <mxCell id="1bVyddex_vhO6T4n7lc5-20" value="" style="shape=dimension;direction=south;whiteSpace=wrap;html=1;align=left;points=[];verticalAlign=middle;labelBackgroundColor=#ffffff;fillColor=#0F0F0F;" parent="1" vertex="1">
          <mxGeometry x="110" y="210" width="90" height="260" as="geometry" />
        </mxCell>
        <mxCell id="1bVyddex_vhO6T4n7lc5-24" value="" style="endArrow=none;dashed=1;html=1;rounded=0;dashPattern=8 8;" parent="1" edge="1">
          <mxGeometry width="50" height="50" relative="1" as="geometry">
            <mxPoint x="130" y="210" as="sourcePoint" />
            <mxPoint x="500" y="210" as="targetPoint" />
          </mxGeometry>
        </mxCell>
        <mxCell id="1bVyddex_vhO6T4n7lc5-28" value="" style="curved=1;endArrow=none;html=1;rounded=0;dashed=1;dashPattern=8 8;strokeColor=default;endFill=0;" parent="1" edge="1">
          <mxGeometry width="50" height="50" relative="1" as="geometry">
            <mxPoint x="510" y="500" as="sourcePoint" />
            <mxPoint x="530" y="130" as="targetPoint" />
            <Array as="points">
              <mxPoint x="530" y="390" />
              <mxPoint x="460" y="350" />
              <mxPoint x="480" y="250" />
            </Array>
          </mxGeometry>
        </mxCell>
        <mxCell id="1bVyddex_vhO6T4n7lc5-48" value="Floor: 4" style="text;strokeColor=none;fillColor=none;html=1;fontSize=24;fontStyle=1;verticalAlign=middle;align=center;" parent="1" vertex="1">
          <mxGeometry x="40" y="520" width="100" height="40" as="geometry" />
        </mxCell>
        <mxCell id="1bVyddex_vhO6T4n7lc5-49" value="Room: 14" style="text;strokeColor=none;fillColor=none;html=1;fontSize=24;fontStyle=1;verticalAlign=middle;align=center;" parent="1" vertex="1">
          <mxGeometry x="160" y="520" width="100" height="40" as="geometry" />
        </mxCell>
        <mxCell id="1bVyddex_vhO6T4n7lc5-57" value="" style="shape=dimension;whiteSpace=wrap;html=1;align=center;points=[];verticalAlign=bottom;spacingBottom=-5;labelBackgroundColor=#ffffff;fontSize=14;fillColor=#0F0F0F;" parent="1" vertex="1">
          <mxGeometry x="200" y="480" width="120" height="40" as="geometry" />
        </mxCell>
        <mxCell id="ZrHg5bKBaFce4DyUZXEO-5" value="" style="endArrow=none;dashed=1;html=1;rounded=0;dashPattern=8 8;exitX=0.013;exitY=-0.15;exitDx=0;exitDy=0;exitPerimeter=0;" edge="1" parent="1" source="1bVyddex_vhO6T4n7lc5-11">
          <mxGeometry width="50" height="50" relative="1" as="geometry">
            <mxPoint x="140" y="220" as="sourcePoint" />
            <mxPoint x="202" y="210" as="targetPoint" />
          </mxGeometry>
        </mxCell>
        <mxCell id="ZrHg5bKBaFce4DyUZXEO-7" value="740" style="text;html=1;strokeColor=none;fillColor=none;align=center;verticalAlign=middle;whiteSpace=wrap;rounded=0;rotation=270;" vertex="1" parent="1">
          <mxGeometry x="70" y="333" width="60" height="30" as="geometry" />
        </mxCell>
        <mxCell id="ZrHg5bKBaFce4DyUZXEO-8" value="2430" style="text;html=1;strokeColor=none;fillColor=none;align=center;verticalAlign=middle;whiteSpace=wrap;rounded=0;" vertex="1" parent="1">
          <mxGeometry x="227" y="490" width="60" height="30" as="geometry" />
        </mxCell>
        <mxCell id="ZrHg5bKBaFce4DyUZXEO-11" value="" style="verticalLabelPosition=bottom;html=1;verticalAlign=top;align=center;shape=mxgraph.floorplan.plant;" vertex="1" parent="1">
          <mxGeometry x="100" y="690" width="47" height="51" as="geometry" />
        </mxCell>
        <mxCell id="ZrHg5bKBaFce4DyUZXEO-12" value="" style="verticalLabelPosition=bottom;html=1;verticalAlign=top;align=center;shape=mxgraph.floorplan.wall;fillColor=strokeColor;" vertex="1" parent="1">
          <mxGeometry x="430" y="950" width="40" height="10" as="geometry" />
        </mxCell>
        <mxCell id="ZrHg5bKBaFce4DyUZXEO-13" value="" style="verticalLabelPosition=bottom;html=1;verticalAlign=top;align=center;shape=mxgraph.floorplan.plant;" vertex="1" parent="1">
          <mxGeometry x="100" y="794.5" width="47" height="51" as="geometry" />
        </mxCell>
        <mxCell id="ZrHg5bKBaFce4DyUZXEO-14" value="" style="verticalLabelPosition=bottom;html=1;verticalAlign=top;align=center;shape=mxgraph.floorplan.plant;" vertex="1" parent="1">
          <mxGeometry x="100" y="845.5" width="47" height="51" as="geometry" />
        </mxCell>
        <mxCell id="ZrHg5bKBaFce4DyUZXEO-15" value="" style="verticalLabelPosition=bottom;html=1;verticalAlign=top;align=center;shape=mxgraph.floorplan.wall;fillColor=strokeColor;" vertex="1" parent="1">
          <mxGeometry x="140" y="950" width="140" height="10" as="geometry" />
        </mxCell>
        <mxCell id="ZrHg5bKBaFce4DyUZXEO-16" value="" style="verticalLabelPosition=bottom;html=1;verticalAlign=top;align=center;shape=mxgraph.floorplan.plant;" vertex="1" parent="1">
          <mxGeometry x="100" y="896.5" width="47" height="51" as="geometry" />
        </mxCell>
        <mxCell id="ZrHg5bKBaFce4DyUZXEO-17" value="" style="rounded=0;whiteSpace=wrap;html=1;fillColor=#0F0F0F;" vertex="1" parent="1">
          <mxGeometry x="157" y="690" width="63" height="50" as="geometry" />
        </mxCell>
        <mxCell id="ZrHg5bKBaFce4DyUZXEO-18" value="Sea view" style="text;strokeColor=none;fillColor=none;html=1;fontSize=24;fontStyle=0;verticalAlign=middle;align=center;" vertex="1" parent="1">
          <mxGeometry x="310" y="550" width="100" height="40" as="geometry" />
        </mxCell>
        <mxCell id="ZrHg5bKBaFce4DyUZXEO-19" value="" style="endArrow=classic;html=1;rounded=0;dashed=1;dashPattern=8 8;" edge="1" parent="1">
          <mxGeometry width="50" height="50" relative="1" as="geometry">
            <mxPoint x="360" y="610" as="sourcePoint" />
            <mxPoint x="360" y="720" as="targetPoint" />
          </mxGeometry>
        </mxCell>
        <mxCell id="ZrHg5bKBaFce4DyUZXEO-20" value="entrance" style="edgeLabel;html=1;align=center;verticalAlign=middle;resizable=0;points=[];fontSize=14;" vertex="1" connectable="0" parent="ZrHg5bKBaFce4DyUZXEO-19">
          <mxGeometry x="-0.5444" y="-3" relative="1" as="geometry">
            <mxPoint as="offset" />
          </mxGeometry>
        </mxCell>
        <mxCell id="ZrHg5bKBaFce4DyUZXEO-21" value="" style="shape=dimension;direction=south;whiteSpace=wrap;html=1;align=left;points=[];verticalAlign=middle;labelBackgroundColor=#ffffff;fillColor=#0F0F0F;" vertex="1" parent="1">
          <mxGeometry x="80" y="690" width="90" height="260" as="geometry" />
        </mxCell>
        <mxCell id="ZrHg5bKBaFce4DyUZXEO-22" value="" style="shape=dimension;direction=west;whiteSpace=wrap;html=1;align=center;points=[];verticalAlign=top;spacingTop=-8;labelBackgroundColor=#ffffff;fillColor=#0F0F0F;" vertex="1" parent="1">
          <mxGeometry x="157" y="660" width="63" height="30" as="geometry" />
        </mxCell>
        <mxCell id="ZrHg5bKBaFce4DyUZXEO-23" value="" style="endArrow=none;dashed=1;html=1;rounded=0;dashPattern=8 8;exitX=1;exitY=0;exitDx=0;exitDy=0;" edge="1" parent="1" source="ZrHg5bKBaFce4DyUZXEO-17">
          <mxGeometry width="50" height="50" relative="1" as="geometry">
            <mxPoint x="490" y="810" as="sourcePoint" />
            <mxPoint x="460" y="690" as="targetPoint" />
          </mxGeometry>
        </mxCell>
        <mxCell id="ZrHg5bKBaFce4DyUZXEO-24" value="" style="curved=1;endArrow=none;html=1;rounded=0;dashed=1;dashPattern=8 8;strokeColor=default;endFill=0;" edge="1" parent="1">
          <mxGeometry width="50" height="50" relative="1" as="geometry">
            <mxPoint x="470" y="980" as="sourcePoint" />
            <mxPoint x="490" y="610" as="targetPoint" />
            <Array as="points">
              <mxPoint x="490" y="870" />
              <mxPoint x="420" y="830" />
              <mxPoint x="440" y="730" />
            </Array>
          </mxGeometry>
        </mxCell>
        <mxCell id="ZrHg5bKBaFce4DyUZXEO-25" value="" style="shape=dimension;whiteSpace=wrap;html=1;align=center;points=[];verticalAlign=bottom;spacingBottom=-5;labelBackgroundColor=#ffffff;fontSize=14;fillColor=#0F0F0F;" vertex="1" parent="1">
          <mxGeometry x="160" y="960" width="120" height="40" as="geometry" />
        </mxCell>
        <mxCell id="ZrHg5bKBaFce4DyUZXEO-26" value="2488" style="text;html=1;strokeColor=none;fillColor=none;align=center;verticalAlign=middle;whiteSpace=wrap;rounded=0;rotation=270;" vertex="1" parent="1">
          <mxGeometry x="30" y="805" width="60" height="30" as="geometry" />
        </mxCell>
        <mxCell id="ZrHg5bKBaFce4DyUZXEO-28" value="" style="verticalLabelPosition=bottom;html=1;verticalAlign=top;align=center;shape=mxgraph.floorplan.plant;" vertex="1" parent="1">
          <mxGeometry x="101.5" y="741" width="47" height="51" as="geometry" />
        </mxCell>
        <mxCell id="ZrHg5bKBaFce4DyUZXEO-29" value="290" style="text;html=1;strokeColor=none;fillColor=none;align=center;verticalAlign=middle;whiteSpace=wrap;rounded=0;" vertex="1" parent="1">
          <mxGeometry x="160" y="630" width="60" height="30" as="geometry" />
        </mxCell>
        <mxCell id="ZrHg5bKBaFce4DyUZXEO-30" value="1280" style="text;html=1;strokeColor=none;fillColor=none;align=center;verticalAlign=middle;whiteSpace=wrap;rounded=0;" vertex="1" parent="1">
          <mxGeometry x="184" y="965" width="60" height="30" as="geometry" />
        </mxCell>
        <mxCell id="ZrHg5bKBaFce4DyUZXEO-32" value="" style="endArrow=none;dashed=1;html=1;rounded=0;dashPattern=8 8;entryX=0;entryY=1;entryDx=0;entryDy=0;exitX=1;exitY=0.056;exitDx=0;exitDy=0;exitPerimeter=0;" edge="1" parent="1">
          <mxGeometry width="50" height="50" relative="1" as="geometry">
            <mxPoint x="159.92000000000007" y="951" as="sourcePoint" />
            <mxPoint x="157" y="741" as="targetPoint" />
          </mxGeometry>
        </mxCell>
        <mxCell id="ZrHg5bKBaFce4DyUZXEO-33" value="" style="shape=dimension;direction=north;whiteSpace=wrap;html=1;align=right;points=[];verticalAlign=middle;labelBackgroundColor=#ffffff" vertex="1" parent="1">
          <mxGeometry x="220" y="690" width="40" height="50" as="geometry" />
        </mxCell>
        <mxCell id="ZrHg5bKBaFce4DyUZXEO-34" value="290" style="text;html=1;strokeColor=none;fillColor=none;align=center;verticalAlign=middle;whiteSpace=wrap;rounded=0;rotation=270;" vertex="1" parent="1">
          <mxGeometry x="217" y="700.5" width="60" height="30" as="geometry" />
        </mxCell>
      </root>
    </mxGraphModel>
  </diagram>
</mxfile>
